PathFileType	4	(X/Y/Z)	Patient4_TMGait_0pt2_03_right_19.trc.trc
DataRate	CameraRate	NumFrames	NumMarkers	Units	OrigDataRate	OrigDataStartFrame	OrigNumFrames
47.781569965870	47.781569965870	4	33	mm	47.781569965870	1	       141
Frame#	Time	Sacral			L.Shoulder			Chest			R.Shoulder			Neck			R.ASIS			L.ASIS			R.Thigh.Superior			R.Thigh.Lateral			R.Thigh.Inferior			R.Patella			L.Thigh.Superior			L.Thigh.Lateral			L.Thigh.Inferior			L.Patella			L.Shank.Superior			L.Shank.Lateral			L.Shank.Inferior			R.Shank.Superior			R.Shank.Lateral			R.Shank.Inferior			R.Heel			R.Midfoot.Superior			R.Midfoot.Lateral			R.Toe			L.Heel			L.Midfoot.Lateral			L.Midfoot.Superior			L.Toe			L.Elbow			L.Wrist			R.Elbow			R.Wrist			
		X1	Y1	Z1	X2	Y2	Z2	X3	Y3	Z3	X4	Y4	Z4	X5	Y5	Z5	X6	Y6	Z6	X7	Y7	Z7	X8	Y8	Z8	X9	Y9	Z9	X10	Y10	Z10	X11	Y11	Z11	X12	Y12	Z12	X13	Y13	Z13	X14	Y14	Z14	X15	Y15	Z15	X16	Y16	Z16	X17	Y17	Z17	X18	Y18	Z18	X19	Y19	Z19	X20	Y20	Z20	X21	Y21	Z21	X22	Y22	Z22	X23	Y23	Z23	X24	Y24	Z24	X25	Y25	Z25	X26	Y26	Z26	X27	Y27	Z27	X28	Y28	Z28	X29	Y29	Z29	X30	Y30	Z30	X31	Y31	Z31	X32	Y32	Z32	X33	Y33	Z33	

1	40.850000000000	767.809919556713	986.135675624402	411.299448773151	946.966102024811	1418.835533478215	232.455605693513	1052.165508284153	1345.404821909335	388.742787183019	976.349069131195	1413.848095238786	567.328947067683	933.159944679773	1477.578642730555	392.274907420757	1002.959664211102	926.398165679865	522.793787166525	982.585176119610	947.089300271414	250.442881170928	1068.625789114388	735.928018853668	500.173807911101	1014.048113233102	624.460316360741	577.658858290058	1095.161903593125	570.899890245363	498.078929574811	1101.301137312499	461.500031123588	527.048191096618	1053.890340717597	746.060657989137	291.973624377509	979.821043115282	603.104699150592	238.352491189091	1080.661270489191	552.195404599384	310.827048183291	1089.236749278851	477.343435015916	322.327578305493	1050.479469254919	400.292049428717	318.131593027953	949.752108639175	296.254403779241	265.615377187855	977.225419653928	182.861821336525	342.258515995227	1022.503668051716	394.707990143855	548.558516046112	905.044449258983	367.574936933428	622.482413249959	881.548722216086	254.972750859386	585.789484469669	676.819127423901	208.570694237954	575.899872419049	838.429138645312	133.039846585258	617.378461434418	730.806850766866	147.097588352007	651.467449067236	893.410313147701	29.702534742512	647.027779702149	829.256091397203	38.964213825518	380.834660664987	904.200426451620	35.847748430908	301.367876598971	988.205318439387	95.105897456280	330.933933226834	1116.375647909494	41.466913913021	301.961654351021	984.965141865740	1076.294923029379	88.438592925176	1108.418014141716	842.882879173946	89.914098635329	986.060514859927	1053.896596567736	672.375669299383	1097.744367556586	817.306962785212	673.457746449502	
2	40.870928571429	767.012856827119	986.462835095922	407.708558550788	949.276153051633	1420.045201423036	231.409848504349	1051.303910991026	1346.360344092352	389.497843744698	971.687376122983	1414.244420845233	566.640600546892	932.779773923951	1478.271527426740	391.036318348090	1000.884540571380	927.617376519309	521.646032793634	983.305334806088	947.690783577189	249.029642210226	1070.557816567469	740.832119094093	497.372985214867	1019.597497218576	628.187899605327	575.412335311094	1101.479167910569	576.465064427308	494.890690564635	1109.842564459402	466.334679643079	524.024754655734	1053.308552929778	745.459117776623	290.528794989190	977.863849012789	603.071766820830	236.906436405926	1077.853570057929	551.452453840307	310.002203968521	1085.982376837580	476.852716716690	321.816721390591	1046.979661577994	399.963158079472	317.595180698995	946.186553483503	296.023810988452	265.008377893531	973.187474965828	182.750921599726	342.025930231119	1030.372966205839	399.116625355224	545.121977252142	911.243850889319	372.814541735027	616.652236365468	888.625144637528	259.727567001650	580.872277524072	684.593763124444	214.164257756331	567.006140419502	845.074260407482	138.026506013002	612.478447748012	736.849232995833	153.616162487847	644.415323380182	897.669052232325	31.277170949034	645.358708746110	824.941018271548	38.977313485545	380.722742355104	899.946462386546	35.823435649712	301.290527474717	983.983639410999	95.121801281736	330.795241650135	1112.129092576113	41.388131028643	301.924431049770	999.148539500863	1082.761057625817	83.145694516233	1138.049646888600	860.155271956717	85.739301818816	961.922024122253	1056.292113494030	670.984222332741	1053.360020215269	813.894133009509	672.429993365581	
3	40.891857142857	766.177502463699	987.110761550869	404.015701974988	951.744352216897	1421.496715748834	230.423535071898	1050.431627559545	1347.579912183092	390.377814930177	966.906608959869	1415.009330265209	565.942637644524	932.405984109572	1479.225979334718	389.797980089295	998.638277289814	929.096389539415	520.613671459786	984.126553222663	948.533244516187	247.744375359716	1072.221535926184	745.971206023309	494.761647029973	1024.813319075066	632.155048362201	573.278392163492	1107.495991591657	582.296574972838	491.915525994182	1118.151324403276	471.534222676169	521.242153574461	1052.498649418850	744.923872190114	289.218613753828	975.537909417710	603.224179130372	235.483213148264	1074.538961015535	550.779402412982	309.214098860685	1082.122359906827	476.478588298555	321.329341828300	1042.961025808831	399.786548425946	317.043965950343	942.219098508257	295.848290227316	264.369404906931	968.865975630862	182.719964552414	341.771621836206	1038.233725991725	403.693688666834	541.871004363086	917.528104155975	377.697413992761	610.984421008445	896.201674517481	264.088790148573	576.034696104374	692.950309238029	218.287951154393	558.245277914751	852.746254079964	142.564124751305	607.574218651920	743.859010546622	158.904790705546	637.429883281156	903.795164946841	32.971289216557	643.525548729314	820.471322708268	38.984471243756	380.605875275779	895.539134107182	35.792191941016	301.204780889973	979.600195061629	95.141223091668	330.641775905018	1107.728996339590	41.327117508241	301.891290331781	1013.662619628656	1089.777785750097	77.848863472624	1168.269609506895	878.820646551809	81.825033159920	937.091165720935	1059.573853225078	669.457536404795	1008.275390427489	811.737356082295	671.222079312721	
4	40.912785714286	765.314963350651	988.173766416282	400.313959425274	954.363593822893	1423.217169742145	229.568700147870	1049.577468466647	1349.108095693952	391.416181011668	962.126122233274	1416.254458205283	565.257444986762	932.061652614906	1480.498412367983	388.611473217559	996.217825727472	930.871248158406	519.793140664196	985.054182870240	949.665301321464	246.703054830211	1073.418633730181	751.219955464357	492.532555683399	1029.318687218619	636.286769565338	571.403816970281	1112.815201386061	588.245729997995	489.377194260141	1125.771842269662	477.035601789839	518.924686191584	1051.384729180393	744.490090625382	288.146713509259	972.768528307832	603.624716800818	234.141519798248	1070.623470922865	550.222766909830	308.501897906366	1077.541231933217	476.274849282510	320.886137704919	1038.351820015813	399.825333506798	316.486766923524	937.819094131443	295.754271977968	263.706118004017	964.288787225431	182.799156906687	341.493581758589	1045.771202887010	408.324657210827	539.039765398324	923.733951286894	381.857072521013	605.815122393331	904.278026774974	267.710077619936	571.556126133474	701.974055549329	220.114292876016	550.097746619645	861.715499277217	146.281927581566	602.917149653060	752.144207751035	162.221369009661	630.888588723525	912.474208840597	34.794441508311	641.585362044263	815.931004514435	38.982548097442	380.487418221095	891.061076619349	35.752950279415	301.110865342119	975.133847469473	95.163979374238	330.473700846512	1103.257736048136	41.291511043475	301.864951296626	1028.146281184010	1097.317131763164	72.765775305895	1198.217390638012	898.856467458910	78.458522280431	912.210548496312	1063.994248643503	667.783861612684	963.875939848650	811.422998359204	669.770769992045	
